<svg xmlns="http://www.w3.org/2000/svg" version="1.1" xmlns:xlink="http://www.w3.org/1999/xlink" xmlns:svgjs="http://svgjs.dev/svgjs" viewBox="0 0 11.807565432580905 3.7963679660868417"><g transform="matrix(1,0,0,1,6.645399154477658,0.6030650865590459)"><g><path d=" M 0.403564453125 0.8635253906250002 Q 0.403564453125 0.9309082031250002 0.37939453125 0.9785156250000002 Q 0.355224609375 1.0261230468750002 0.320068359375 1.0510253906250002 L 0.322998046875 1.0510253906250002 Q 0.3662109375 1.0510253906250002 0.4017333984375 1.0316162109375002 Q 0.437255859375 1.0122070312500002 0.4658203125 0.9818115234375002 Q 0.494384765625 0.9514160156250002 0.51708984375 0.9140625000000002 Q 0.539794921875 0.8767089843750002 0.557373046875 0.8415527343750002 Q 0.56103515625 0.8334960937500002 0.5679931640625 0.8291015625000002 Q 0.574951171875 0.8247070312500002 0.5830078125 0.8247070312500002 Q 0.595458984375 0.8247070312500002 0.602783203125 0.8334960937500002 Q 0.610107421875 0.8422851562500002 0.610107421875 0.8525390625000002 Q 0.610107421875 0.8583984375000002 0.60791015625 0.8635253906250002 Q 0.5888671875 0.9060058593750002 0.5625 0.9488525390625002 Q 0.5361328125 0.9916992187500002 0.5009765625 1.0261230468750002 Q 0.4658203125 1.0605468750000002 0.421875 1.0821533203125002 Q 0.3779296875 1.1037597656250002 0.324462890625 1.1037597656250002 Q 0.28564453125 1.1037597656250002 0.2490234375 1.0916748046875002 Q 0.21240234375 1.0795898437500002 0.1845703125 1.0539550781250002 Q 0.17431640625 1.0458984375000002 0.1669921875 1.0367431640625002 Q 0.15966796875 1.0275878906250002 0.1552734375 1.0195312500000002 Q 0.15380859375 1.0180664062500002 0.15380859375 1.0166015625000002 Q 0.1494140625 1.0100097656250002 0.1494140625 1.0026855468750002 Q 0.1494140625 0.9931640625000002 0.156005859375 0.9851074218750002 Q 0.15673828125 0.9836425781250002 0.157470703125 0.9832763671875002 Q 0.158203125 0.9829101562500002 0.158935546875 0.9821777343750002 Q 0.166259765625 0.9755859375000002 0.175048828125 0.9748535156250002 L 0.17724609375 0.9748535156250002 Q 0.180908203125 0.9748535156250002 0.182373046875 0.9755859375000002 Q 0.18310546875 0.9755859375000002 0.1834716796875 0.9759521484375002 Q 0.183837890625 0.9763183593750002 0.1845703125 0.9763183593750002 Q 0.186767578125 0.9763183593750002 0.189697265625 0.9777832031250002 Q 0.1904296875 0.9785156250000002 0.191162109375 0.9785156250000002 Q 0.19775390625 0.9829101562500002 0.2021484375 0.9895019531250002 Q 0.207275390625 0.9982910156250002 0.2138671875 1.0056152343750002 Q 0.2197265625 1.0114746093750002 0.227783203125 1.0162353515625002 Q 0.23583984375 1.0209960937500002 0.24609375 1.0209960937500002 Q 0.264404296875 1.0209960937500002 0.28271484375 1.0100097656250002 Q 0.301025390625 0.9990234375000002 0.315673828125 0.9785156250000002 Q 0.330322265625 0.9580078125000002 0.3394775390625 0.9287109375000002 Q 0.3486328125 0.8994140625000002 0.3486328125 0.8635253906250002 Q 0.3486328125 0.8371582031250002 0.3431396484375 0.8184814453125002 Q 0.337646484375 0.7998046875000002 0.3292236328125 0.7880859375000002 Q 0.32080078125 0.7763671875000002 0.311279296875 0.7708740234375002 Q 0.3017578125 0.7653808593750002 0.29296875 0.7653808593750002 Q 0.273193359375 0.7653808593750002 0.2530517578125 0.7858886718750002 Q 0.23291015625 0.8063964843750002 0.213134765625 0.8378906250000002 Q 0.193359375 0.8693847656250002 0.1739501953125 0.9074707031250002 Q 0.154541015625 0.9455566406250002 0.134765625 0.9814453125000002 Q 0.13330078125 1.1000976562500002 0.1307373046875 1.2077636718750002 Q 0.128173828125 1.3154296875000002 0.1219482421875 1.4077148437500002 Q 0.11572265625 1.5000000000000002 0.104736328125 1.5747070312500002 Q 0.09375 1.6494140625000002 0.07470703125 1.7025146484375002 Q 0.0556640625 1.7556152343750002 0.02783203125 1.7841796875000002 Q 0 1.8127441406250002 -0.040283203125 1.8127441406250002 Q -0.052734375 1.8127441406250002 -0.06884765625 1.8076171875000002 Q -0.0849609375 1.8024902343750002 -0.098876953125 1.7867431640625002 Q -0.11279296875 1.7709960937500002 -0.122314453125 1.7416992187500002 Q -0.1318359375 1.7124023437500002 -0.1318359375 1.6633300781250002 Q -0.1318359375 1.6010742187500002 -0.116455078125 1.5190429687500002 Q -0.10107421875 1.4370117187500002 -0.0728759765625 1.3450927734375002 Q -0.044677734375 1.2531738281250002 -0.005859375 1.1564941406250002 Q 0.032958984375 1.0598144531250002 0.079833984375 0.9682617187500002 Q 0.079833984375 0.9426269531250002 0.0802001953125 0.9177246093750002 Q 0.08056640625 0.8928222656250002 0.08056640625 0.8693847656250002 Q 0.071044921875 0.8803710937500002 0.057861328125 0.8803710937500002 Q 0.04541015625 0.8803710937500002 0.0380859375 0.8715820312500002 Q 0.03076171875 0.8627929687500002 0.03076171875 0.8525390625000002 Q 0.03076171875 0.8474121093750002 0.032958984375 0.8415527343750002 Q 0.050537109375 0.8012695312500002 0.06005859375 0.7650146484375002 Q 0.069580078125 0.7287597656250002 0.0743408203125 0.7012939453125002 Q 0.0791015625 0.6738281250000002 0.079833984375 0.6577148437500002 Q 0.08056640625 0.6416015625000002 0.08056640625 0.6408691406250002 Q 0.08056640625 0.6298828125000002 0.088623046875 0.6218261718750002 Q 0.0966796875 0.6137695312500002 0.1083984375 0.6137695312500002 Q 0.119384765625 0.6137695312500002 0.12744140625 0.6214599609375002 Q 0.135498046875 0.6291503906250002 0.135498046875 0.6408691406250002 L 0.135498046875 0.8657226562500002 Q 0.15234375 0.8371582031250002 0.169189453125 0.8093261718750002 Q 0.18603515625 0.7814941406250002 0.2047119140625 0.7595214843750002 Q 0.223388671875 0.7375488281250002 0.2449951171875 0.7239990234375002 Q 0.2666015625 0.7104492187500002 0.29296875 0.7104492187500002 Q 0.31787109375 0.7104492187500002 0.33837890625 0.7221679687500002 Q 0.35888671875 0.7338867187500002 0.37353515625 0.7543945312500002 Q 0.38818359375 0.7749023437500002 0.3958740234375 0.8031005859375002 Q 0.403564453125 0.8312988281250002 0.403564453125 0.8635253906250002 M 0.078369140625 1.0986328125000002 Q 0.04248046875 1.1791992187500002 0.0135498046875 1.2604980468750002 Q -0.015380859375 1.3417968750000002 -0.0355224609375 1.4172363281250002 Q -0.0556640625 1.4926757812500002 -0.066650390625 1.5585937500000002 Q -0.07763671875 1.6245117187500002 -0.07763671875 1.6743164062500002 Q -0.07763671875 1.6867675781250002 -0.076171875 1.7014160156250002 Q -0.07470703125 1.7160644531250002 -0.0703125 1.7285156250000002 Q -0.06591796875 1.7409667968750002 -0.057861328125 1.7493896484375002 Q -0.0498046875 1.7578125000000002 -0.03662109375 1.7578125000000002 Q -0.012451171875 1.7578125000000002 0.005126953125 1.7274169921875002 Q 0.022705078125 1.6970214843750002 0.0347900390625 1.6453857421875002 Q 0.046875 1.5937500000000002 0.054931640625 1.5267333984375002 Q 0.06298828125 1.4597167968750002 0.0677490234375 1.3864746093750002 Q 0.072509765625 1.3132324218750002 0.07470703125 1.2388916015625002 Q 0.076904296875 1.1645507812500002 0.078369140625 1.0986328125000002 M 0.9814453125 0.8649902343750002 Q 0.973388671875 0.8818359375000002 0.9613037109375 0.9049072265625002 Q 0.94921875 0.9279785156250002 0.933837890625 0.9528808593750002 Q 0.91845703125 0.9777832031250002 0.8994140625 1.0023193359375002 Q 0.88037109375 1.0268554687500002 0.8580322265625 1.0462646484375002 Q 0.835693359375 1.0656738281250002 0.8104248046875 1.0777587890625002 Q 0.78515625 1.0898437500000002 0.756591796875 1.0898437500000002 Q 0.712646484375 1.0898437500000002 0.68115234375 1.0627441406250002 Q 0.649658203125 1.0356445312500002 0.627685546875 0.9916992187500002 Q 0.605712890625 0.9477539062500002 0.5921630859375 0.8917236328125002 Q 0.57861328125 0.8356933593750002 0.5712890625 0.7774658203125002 Q 0.56396484375 0.7192382812500002 0.5614013671875 0.6643066406250002 Q 0.558837890625 0.6093750000000002 0.558837890625 0.5668945312500002 Q 0.558837890625 0.5053710937500002 0.5628662109375 0.4394531250000002 Q 0.56689453125 0.3735351562500002 0.57568359375 0.3105468750000002 Q 0.58447265625 0.24755859375000022 0.5980224609375 0.19116210937500022 Q 0.611572265625 0.13476562500000022 0.6302490234375 0.09228515625000022 Q 0.64892578125 0.04980468750000022 0.673095703125 0.024902343750000222 Q 0.697265625 2.220446049250313e-16 0.72802734375 2.220446049250313e-16 Q 0.752197265625 2.220446049250313e-16 0.7716064453125 0.011352539062500222 Q 0.791015625 0.022705078125000222 0.80419921875 0.04833984375000022 Q 0.8173828125 0.07397460937500022 0.82470703125 0.11499023437500022 Q 0.83203125 0.15600585937500022 0.83203125 0.21533203125000022 Q 0.83203125 0.2885742187500002 0.816650390625 0.3665771484375002 Q 0.80126953125 0.4445800781250002 0.77490234375 0.5236816406250002 Q 0.74853515625 0.6027832031250002 0.712646484375 0.6815185546875002 Q 0.6767578125 0.7602539062500002 0.6357421875 0.8349609375000002 Q 0.654052734375 0.9279785156250002 0.684814453125 0.9810791015625002 Q 0.715576171875 1.0341796875000002 0.7587890625 1.0341796875000002 Q 0.7880859375 1.0341796875000002 0.815185546875 1.0111083984375002 Q 0.84228515625 0.9880371093750002 0.864990234375 0.9565429687500002 Q 0.8876953125 0.9250488281250002 0.9049072265625 0.8924560546875002 Q 0.922119140625 0.8598632812500002 0.931640625 0.8400878906250002 Q 0.935302734375 0.8327636718750002 0.94189453125 0.8287353515625002 Q 0.948486328125 0.8247070312500002 0.95654296875 0.8247070312500002 Q 0.968994140625 0.8247070312500002 0.9766845703125 0.8334960937500002 Q 0.984375 0.8422851562500002 0.984375 0.8532714843750002 Q 0.984375 0.8576660156250002 0.9814453125 0.8649902343750002 M 0.614501953125 0.5705566406250002 Q 0.614501953125 0.6174316406250002 0.61669921875 0.6606445312500002 Q 0.618896484375 0.7038574218750002 0.62255859375 0.7434082031250002 Q 0.6533203125 0.6840820312500002 0.68115234375 0.6170654296875002 Q 0.708984375 0.5500488281250002 0.730224609375 0.4815673828125002 Q 0.75146484375 0.4130859375000002 0.7642822265625 0.3453369140625002 Q 0.777099609375 0.2775878906250002 0.777099609375 0.21606445312500022 Q 0.777099609375 0.12963867187500022 0.76318359375 0.09228515625000022 Q 0.749267578125 0.05493164062500022 0.725830078125 0.05493164062500022 Q 0.71044921875 0.05493164062500022 0.6961669921875 0.07617187500000022 Q 0.681884765625 0.09741210937500022 0.66943359375 0.13403320312500022 Q 0.656982421875 0.17065429687500022 0.646728515625 0.22045898437500022 Q 0.636474609375 0.2702636718750002 0.6295166015625 0.3273925781250002 Q 0.62255859375 0.3845214843750002 0.6185302734375 0.4467773437500002 Q 0.614501953125 0.5090332031250002 0.614501953125 0.5705566406250002 M 1.18212890625 0.9858398437500002 Q 1.156494140625 1.0275878906250002 1.1224365234375 1.0517578125000002 Q 1.08837890625 1.0759277343750002 1.053955078125 1.0759277343750002 Q 1.026123046875 1.0759277343750002 1.004150390625 1.0656738281250002 Q 0.982177734375 1.0554199218750002 0.966064453125 1.0367431640625002 Q 0.949951171875 1.0180664062500002 0.9415283203125 0.9916992187500002 Q 0.93310546875 0.9653320312500002 0.93310546875 0.9323730468750002 Q 0.93310546875 0.8811035156250002 0.9429931640625 0.8415527343750002 Q 0.952880859375 0.8020019531250002 0.964599609375 0.7752685546875002 Q 0.976318359375 0.7485351562500002 0.986572265625 0.7346191406250002 Q 0.996826171875 0.7207031250000002 0.996826171875 0.7207031250000002 Q 1.00048828125 0.7163085937500002 1.0059814453125 0.7141113281250002 Q 1.011474609375 0.7119140625000002 1.017333984375 0.7119140625000002 Q 1.029052734375 0.7119140625000002 1.0367431640625 0.7203369140625002 Q 1.04443359375 0.7287597656250002 1.04443359375 0.7397460937500002 Q 1.04443359375 0.7441406250000002 1.0426025390625 0.7485351562500002 Q 1.040771484375 0.7529296875000002 1.03857421875 0.7573242187500002 Q 1.034912109375 0.7639160156250002 1.02685546875 0.7774658203125002 Q 1.018798828125 0.7910156250000002 1.010009765625 0.8129882812500002 Q 1.001220703125 0.8349609375000002 0.99462890625 0.8646240234375002 Q 0.988037109375 0.8942871093750002 0.988037109375 0.9323730468750002 Q 0.988037109375 0.9755859375000002 1.0052490234375 0.9979248046875002 Q 1.0224609375 1.0202636718750002 1.053955078125 1.0202636718750002 Q 1.067138671875 1.0202636718750002 1.0843505859375 1.0118408203125002 Q 1.1015625 1.0034179687500002 1.1180419921875 0.9858398437500002 Q 1.134521484375 0.9682617187500002 1.14697265625 0.9411621093750002 Q 1.159423828125 0.9140625000000002 1.1630859375 0.8774414062500002 L 1.174072265625 0.7514648437500002 Q 1.175537109375 0.7404785156250002 1.18359375 0.7331542968750002 Q 1.191650390625 0.7258300781250002 1.20263671875 0.7258300781250002 Q 1.215087890625 0.7258300781250002 1.222412109375 0.7349853515625002 Q 1.229736328125 0.7441406250000002 1.229736328125 0.7558593750000002 L 1.22021484375 0.8774414062500002 Q 1.21875 0.8928222656250002 1.2213134765625 0.9177246093750002 Q 1.223876953125 0.9426269531250002 1.23193359375 0.9667968750000002 Q 1.239990234375 0.9909667968750002 1.256103515625 1.0081787109375002 Q 1.272216796875 1.0253906250000002 1.298583984375 1.0253906250000002 Q 1.317626953125 1.0253906250000002 1.3359375 1.0155029296875002 Q 1.354248046875 1.0056152343750002 1.37109375 0.9895019531250002 Q 1.387939453125 0.9733886718750002 1.4022216796875 0.9532470703125002 Q 1.41650390625 0.9331054687500002 1.4285888671875 0.9125976562500002 Q 1.440673828125 0.8920898437500002 1.449462890625 0.8734130859375002 Q 1.458251953125 0.8547363281250002 1.464111328125 0.8415527343750002 Q 1.4677734375 0.8334960937500002 1.474365234375 0.8291015625000002 Q 1.48095703125 0.8247070312500002 1.489013671875 0.8247070312500002 Q 1.502197265625 0.8247070312500002 1.509521484375 0.8334960937500002 Q 1.516845703125 0.8422851562500002 1.516845703125 0.8525390625000002 Q 1.516845703125 0.8583984375000002 1.5146484375 0.8635253906250002 Q 1.51171875 0.8693847656250002 1.5032958984375 0.8880615234375002 Q 1.494873046875 0.9067382812500002 1.4813232421875 0.9305419921875002 Q 1.4677734375 0.9543457031250002 1.44873046875 0.9807128906250002 Q 1.4296875 1.0070800781250002 1.40625 1.0294189453125002 Q 1.3828125 1.0517578125000002 1.3553466796875 1.0660400390625002 Q 1.327880859375 1.0803222656250002 1.29638671875 1.0803222656250002 Q 1.253173828125 1.0803222656250002 1.224609375 1.0557861328125002 Q 1.196044921875 1.0312500000000002 1.18212890625 0.9858398437500002 M 1.54833984375 0.7668457031250002 Q 1.54541015625 0.7866210937500002 1.541015625 0.8038330078125002 Q 1.53662109375 0.8210449218750002 1.5325927734375 0.8338623046875002 Q 1.528564453125 0.8466796875000002 1.525634765625 0.8547363281250002 Q 1.522705078125 0.8627929687500002 1.52197265625 0.8635253906250002 Q 1.5146484375 0.8803710937500002 1.496337890625 0.8803710937500002 Q 1.486083984375 0.8803710937500002 1.477294921875 0.8726806640625002 Q 1.468505859375 0.8649902343750002 1.468505859375 0.8532714843750002 Q 1.468505859375 0.8488769531250002 1.469970703125 0.8466796875000002 Q 1.471435546875 0.8444824218750002 1.474365234375 0.8378906250000002 Q 1.477294921875 0.8312988281250002 1.481689453125 0.8159179687500002 Q 1.486083984375 0.8005371093750002 1.49267578125 0.7683105468750002 Q 1.480224609375 0.7683105468750002 1.467041015625 0.7675781250000002 Q 1.453857421875 0.7668457031250002 1.4425048828125 0.7624511718750002 Q 1.43115234375 0.7580566406250002 1.423828125 0.7485351562500002 Q 1.41650390625 0.7390136718750002 1.41650390625 0.7221679687500002 Q 1.41650390625 0.7097167968750002 1.4234619140625 0.6884765625000002 Q 1.430419921875 0.6672363281250002 1.442138671875 0.6467285156250002 Q 1.453857421875 0.6262207031250002 1.468505859375 0.6112060546875002 Q 1.483154296875 0.5961914062500002 1.497802734375 0.5961914062500002 Q 1.5146484375 0.5961914062500002 1.5252685546875 0.6086425781250002 Q 1.535888671875 0.6210937500000002 1.541748046875 0.6390380859375002 Q 1.547607421875 0.6569824218750002 1.5501708984375 0.6767578125000002 Q 1.552734375 0.6965332031250002 1.552734375 0.7111816406250002 Q 1.565185546875 0.7111816406250002 1.5772705078125 0.7108154296875002 Q 1.58935546875 0.7104492187500002 1.600341796875 0.7104492187500002 Q 1.64208984375 0.7104492187500002 1.6640625 0.7287597656250002 Q 1.68603515625 0.7470703125000002 1.68603515625 0.7888183593750002 Q 1.68603515625 0.8056640625000002 1.683837890625 0.8239746093750002 Q 1.681640625 0.8422851562500002 1.6787109375 0.8616943359375002 Q 1.67578125 0.8811035156250002 1.673583984375 0.9001464843750002 Q 1.67138671875 0.9191894531250002 1.67138671875 0.9375000000000002 Q 1.67138671875 0.9638671875000002 1.6787109375 0.9810791015625002 Q 1.68603515625 0.9982910156250002 1.697021484375 1.0085449218750002 Q 1.7080078125 1.0187988281250002 1.720458984375 1.0228271484375002 Q 1.73291015625 1.0268554687500002 1.7431640625 1.0268554687500002 Q 1.774658203125 1.0268554687500002 1.802490234375 1.0063476562500002 Q 1.830322265625 0.9858398437500002 1.853759765625 0.9569091796875002 Q 1.877197265625 0.9279785156250002 1.8958740234375 0.8957519531250002 Q 1.91455078125 0.8635253906250002 1.927001953125 0.8393554687500002 Q 1.9306640625 0.8327636718750002 1.937255859375 0.8291015625000002 Q 1.94384765625 0.8254394531250002 1.951171875 0.8254394531250002 Q 1.96435546875 0.8254394531250002 1.9716796875 0.8338623046875002 Q 1.97900390625 0.8422851562500002 1.97900390625 0.8525390625000002 Q 1.97900390625 0.8598632812500002 1.97607421875 0.8657226562500002 Q 1.959228515625 0.8957519531250002 1.9368896484375 0.9334716796875002 Q 1.91455078125 0.9711914062500002 1.885986328125 1.0041503906250002 Q 1.857421875 1.0371093750000002 1.8218994140625 1.0598144531250002 Q 1.786376953125 1.0825195312500002 1.743896484375 1.0825195312500002 Q 1.717529296875 1.0825195312500002 1.694091796875 1.0726318359375002 Q 1.670654296875 1.0627441406250002 1.6534423828125 1.0440673828125002 Q 1.63623046875 1.0253906250000002 1.6259765625 0.9979248046875002 Q 1.61572265625 0.9704589843750002 1.61572265625 0.9360351562500002 Q 1.61572265625 0.8994140625000002 1.623046875 0.8631591796875002 Q 1.63037109375 0.8269042968750002 1.63037109375 0.7939453125000002 Q 1.63037109375 0.7800292968750002 1.6241455078125 0.7730712890625002 Q 1.617919921875 0.7661132812500002 1.5966796875 0.7661132812500002 Q 1.58642578125 0.7661132812500002 1.5743408203125 0.7661132812500002 Q 1.562255859375 0.7661132812500002 1.54833984375 0.7668457031250002 M 1.499267578125 0.7126464843750002 Q 1.499267578125 0.7075195312500002 1.4989013671875 0.6990966796875002 Q 1.49853515625 0.6906738281250002 1.4974365234375 0.6826171875000002 Q 1.496337890625 0.6745605468750002 1.4945068359375 0.6687011718750002 Q 1.49267578125 0.6628417968750002 1.490478515625 0.6628417968750002 Q 1.48828125 0.6628417968750002 1.4849853515625 0.6683349609375002 Q 1.481689453125 0.6738281250000002 1.47802734375 0.6815185546875002 Q 1.474365234375 0.6892089843750002 1.471435546875 0.6979980468750002 Q 1.468505859375 0.7067871093750002 1.467041015625 0.7126464843750002 L 1.499267578125 0.7126464843750002 M 2.499755859375 0.8635253906250002 Q 2.496826171875 0.8693847656250002 2.4876708984375 0.8880615234375002 Q 2.478515625 0.9067382812500002 2.4642333984375 0.9309082031250002 Q 2.449951171875 0.9550781250000002 2.430908203125 0.9814453125000002 Q 2.411865234375 1.0078125000000002 2.388427734375 1.0297851562500002 Q 2.364990234375 1.0517578125000002 2.337890625 1.0660400390625002 Q 2.310791015625 1.0803222656250002 2.28076171875 1.0803222656250002 Q 2.23828125 1.0803222656250002 2.2093505859375 1.0532226562500002 Q 2.180419921875 1.0261230468750002 2.167236328125 0.9851074218750002 Q 2.142333984375 1.0268554687500002 2.10791015625 1.0513916015625002 Q 2.073486328125 1.0759277343750002 2.0390625 1.0759277343750002 Q 2.011962890625 1.0759277343750002 1.989990234375 1.0660400390625002 Q 1.968017578125 1.0561523437500002 1.95263671875 1.0382080078125002 Q 1.937255859375 1.0202636718750002 1.9288330078125 0.9960937500000002 Q 1.92041015625 0.9719238281250002 1.92041015625 0.9433593750000002 Q 1.92041015625 0.8862304687500002 1.9398193359375 0.8426513671875002 Q 1.959228515625 0.7990722656250002 1.9892578125 0.7697753906250002 Q 2.019287109375 0.7404785156250002 2.0555419921875 0.7258300781250002 Q 2.091796875 0.7111816406250002 2.12548828125 0.7111816406250002 Q 2.148193359375 0.7111816406250002 2.167236328125 0.7174072265625002 Q 2.186279296875 0.7236328125000002 2.1998291015625 0.7309570312500002 Q 2.21337890625 0.7382812500000002 2.220703125 0.7445068359375002 Q 2.22802734375 0.7507324218750002 2.228759765625 0.7514648437500002 Q 2.23681640625 0.7609863281250002 2.23681640625 0.7712402343750002 Q 2.23681640625 0.7822265625000002 2.228759765625 0.7906494140625002 Q 2.220703125 0.7990722656250002 2.209716796875 0.7990722656250002 Q 2.197998046875 0.7990722656250002 2.18994140625 0.7910156250000002 Q 2.1884765625 0.7895507812500002 2.183349609375 0.7855224609375002 Q 2.17822265625 0.7814941406250002 2.16943359375 0.7770996093750002 Q 2.16064453125 0.7727050781250002 2.1485595703125 0.7694091796875002 Q 2.136474609375 0.7661132812500002 2.12109375 0.7661132812500002 Q 2.098388671875 0.7661132812500002 2.07275390625 0.7763671875000002 Q 2.047119140625 0.7866210937500002 2.02587890625 0.8082275390625002 Q 2.004638671875 0.8298339843750002 1.9903564453125 0.8624267578125002 Q 1.97607421875 0.8950195312500002 1.97607421875 0.9396972656250002 Q 1.97607421875 0.9536132812500002 1.97900390625 0.9678955078125002 Q 1.98193359375 0.9821777343750002 1.9892578125 0.9938964843750002 Q 1.99658203125 1.0056152343750002 2.009033203125 1.0129394531250002 Q 2.021484375 1.0202636718750002 2.039794921875 1.0202636718750002 Q 2.052978515625 1.0202636718750002 2.0701904296875 1.0114746093750002 Q 2.08740234375 1.0026855468750002 2.1031494140625 0.9843750000000002 Q 2.118896484375 0.9660644531250002 2.1317138671875 0.9382324218750002 Q 2.14453125 0.9104003906250002 2.149658203125 0.8723144531250002 Q 2.151123046875 0.8620605468750002 2.1591796875 0.8551025390625002 Q 2.167236328125 0.8481445312500002 2.17822265625 0.8481445312500002 Q 2.1884765625 0.8481445312500002 2.1961669921875 0.8562011718750002 Q 2.203857421875 0.8642578125000002 2.20458984375 0.8745117187500002 Q 2.205322265625 0.8884277343750002 2.20751953125 0.9136962890625002 Q 2.209716796875 0.9389648437500002 2.2174072265625 0.9638671875000002 Q 2.22509765625 0.9887695312500002 2.240478515625 1.0070800781250002 Q 2.255859375 1.0253906250000002 2.282958984375 1.0253906250000002 Q 2.300537109375 1.0253906250000002 2.3177490234375 1.0158691406250002 Q 2.3349609375 1.0063476562500002 2.3514404296875 0.9906005859375002 Q 2.367919921875 0.9748535156250002 2.3829345703125 0.9547119140625002 Q 2.39794921875 0.9345703125000002 2.410400390625 0.9140625000000002 Q 2.4228515625 0.8935546875000002 2.432373046875 0.8745117187500002 Q 2.44189453125 0.8554687500000002 2.448486328125 0.8415527343750002 Q 2.4521484375 0.8334960937500002 2.4591064453125 0.8291015625000002 Q 2.466064453125 0.8247070312500002 2.47412109375 0.8247070312500002 Q 2.486572265625 0.8247070312500002 2.4942626953125 0.8338623046875002 Q 2.501953125 0.8430175781250002 2.501953125 0.8532714843750002 Q 2.501953125 0.8583984375000002 2.499755859375 0.8635253906250002 M 2.873291015625 0.8649902343750002 Q 2.865234375 0.8818359375000002 2.8531494140625 0.9049072265625002 Q 2.841064453125 0.9279785156250002 2.82568359375 0.9528808593750002 Q 2.810302734375 0.9777832031250002 2.791259765625 1.0023193359375002 Q 2.772216796875 1.0268554687500002 2.7498779296875 1.0462646484375002 Q 2.7275390625 1.0656738281250002 2.7022705078125 1.0777587890625002 Q 2.677001953125 1.0898437500000002 2.6484375 1.0898437500000002 Q 2.6044921875 1.0898437500000002 2.572998046875 1.0627441406250002 Q 2.54150390625 1.0356445312500002 2.51953125 0.9916992187500002 Q 2.49755859375 0.9477539062500002 2.4840087890625 0.8917236328125002 Q 2.470458984375 0.8356933593750002 2.463134765625 0.7774658203125002 Q 2.455810546875 0.7192382812500002 2.4532470703125 0.6643066406250002 Q 2.45068359375 0.6093750000000002 2.45068359375 0.5668945312500002 Q 2.45068359375 0.5053710937500002 2.4547119140625 0.4394531250000002 Q 2.458740234375 0.3735351562500002 2.467529296875 0.3105468750000002 Q 2.476318359375 0.24755859375000022 2.4898681640625 0.19116210937500022 Q 2.50341796875 0.13476562500000022 2.5220947265625 0.09228515625000022 Q 2.540771484375 0.04980468750000022 2.56494140625 0.024902343750000222 Q 2.589111328125 2.220446049250313e-16 2.619873046875 2.220446049250313e-16 Q 2.64404296875 2.220446049250313e-16 2.6634521484375 0.011352539062500222 Q 2.682861328125 0.022705078125000222 2.696044921875 0.04833984375000022 Q 2.709228515625 0.07397460937500022 2.716552734375 0.11499023437500022 Q 2.723876953125 0.15600585937500022 2.723876953125 0.21533203125000022 Q 2.723876953125 0.2885742187500002 2.70849609375 0.3665771484375002 Q 2.693115234375 0.4445800781250002 2.666748046875 0.5236816406250002 Q 2.640380859375 0.6027832031250002 2.6044921875 0.6815185546875002 Q 2.568603515625 0.7602539062500002 2.527587890625 0.8349609375000002 Q 2.5458984375 0.9279785156250002 2.57666015625 0.9810791015625002 Q 2.607421875 1.0341796875000002 2.650634765625 1.0341796875000002 Q 2.679931640625 1.0341796875000002 2.70703125 1.0111083984375002 Q 2.734130859375 0.9880371093750002 2.7568359375 0.9565429687500002 Q 2.779541015625 0.9250488281250002 2.7967529296875 0.8924560546875002 Q 2.81396484375 0.8598632812500002 2.823486328125 0.8400878906250002 Q 2.8271484375 0.8327636718750002 2.833740234375 0.8287353515625002 Q 2.84033203125 0.8247070312500002 2.848388671875 0.8247070312500002 Q 2.86083984375 0.8247070312500002 2.8685302734375 0.8334960937500002 Q 2.876220703125 0.8422851562500002 2.876220703125 0.8532714843750002 Q 2.876220703125 0.8576660156250002 2.873291015625 0.8649902343750002 M 2.50634765625 0.5705566406250002 Q 2.50634765625 0.6174316406250002 2.508544921875 0.6606445312500002 Q 2.5107421875 0.7038574218750002 2.514404296875 0.7434082031250002 Q 2.545166015625 0.6840820312500002 2.572998046875 0.6170654296875002 Q 2.600830078125 0.5500488281250002 2.6220703125 0.4815673828125002 Q 2.643310546875 0.4130859375000002 2.6561279296875 0.3453369140625002 Q 2.6689453125 0.2775878906250002 2.6689453125 0.21606445312500022 Q 2.6689453125 0.12963867187500022 2.655029296875 0.09228515625000022 Q 2.64111328125 0.05493164062500022 2.61767578125 0.05493164062500022 Q 2.602294921875 0.05493164062500022 2.5880126953125 0.07617187500000022 Q 2.57373046875 0.09741210937500022 2.561279296875 0.13403320312500022 Q 2.548828125 0.17065429687500022 2.53857421875 0.22045898437500022 Q 2.5283203125 0.2702636718750002 2.5213623046875 0.3273925781250002 Q 2.514404296875 0.3845214843750002 2.5103759765625 0.4467773437500002 Q 2.50634765625 0.5090332031250002 2.50634765625 0.5705566406250002 M 2.9501953125 0.4929199218750002 Q 2.9501953125 0.5207519531250002 2.9307861328125 0.5401611328125002 Q 2.911376953125 0.5595703125000002 2.883544921875 0.5595703125000002 Q 2.855712890625 0.5595703125000002 2.8363037109375 0.5401611328125002 Q 2.81689453125 0.5207519531250002 2.81689453125 0.4929199218750002 Q 2.81689453125 0.4790039062500002 2.822021484375 0.4669189453125002 Q 2.8271484375 0.4548339843750002 2.8363037109375 0.4456787109375002 Q 2.845458984375 0.4365234375000002 2.8575439453125 0.4313964843750002 Q 2.86962890625 0.4262695312500002 2.883544921875 0.4262695312500002 Q 2.8974609375 0.4262695312500002 2.9095458984375 0.4313964843750002 Q 2.921630859375 0.4365234375000002 2.9307861328125 0.4456787109375002 Q 2.93994140625 0.4548339843750002 2.945068359375 0.4669189453125002 Q 2.9501953125 0.4790039062500002 2.9501953125 0.4929199218750002 M 2.83154296875 0.9221191406250002 Q 2.83154296875 0.8166503906250002 2.8447265625 0.7119140625000002 Q 2.84619140625 0.7016601562500002 2.8538818359375 0.6939697265625002 Q 2.861572265625 0.6862792968750002 2.8740234375 0.6862792968750002 Q 2.885009765625 0.6862792968750002 2.892333984375 0.6947021484375002 Q 2.899658203125 0.7031250000000002 2.899658203125 0.7141113281250002 Q 2.899658203125 0.7185058593750002 2.8978271484375 0.7404785156250002 Q 2.89599609375 0.7624511718750002 2.8934326171875 0.7928466796875002 Q 2.890869140625 0.8232421875000002 2.8890380859375 0.8572998046875002 Q 2.88720703125 0.8913574218750002 2.88720703125 0.9199218750000002 Q 2.88720703125 0.9587402343750002 2.8948974609375 0.9825439453125002 Q 2.902587890625 1.0063476562500002 2.9146728515625 1.0195312500000002 Q 2.9267578125 1.0327148437500002 2.9403076171875 1.0371093750000002 Q 2.953857421875 1.0415039062500002 2.96630859375 1.0415039062500002 Q 2.98681640625 1.0415039062500002 3.0087890625 1.0268554687500002 Q 3.03076171875 1.0122070312500002 3.0538330078125 0.9858398437500002 Q 3.076904296875 0.9594726562500002 3.100341796875 0.9224853515625002 Q 3.123779296875 0.8854980468750002 3.146484375 0.8400878906250002 Q 3.150146484375 0.8327636718750002 3.15673828125 0.8287353515625002 Q 3.163330078125 0.8247070312500002 3.17138671875 0.8247070312500002 Q 3.18310546875 0.8247070312500002 3.1907958984375 0.8334960937500002 Q 3.198486328125 0.8422851562500002 3.198486328125 0.8525390625000002 Q 3.198486328125 0.8598632812500002 3.195556640625 0.8649902343750002 Q 3.186767578125 0.8818359375000002 3.173583984375 0.9060058593750002 Q 3.160400390625 0.9301757812500002 3.1435546875 0.9558105468750002 Q 3.126708984375 0.9814453125000002 3.1065673828125 1.0067138671875002 Q 3.08642578125 1.0319824218750002 3.063720703125 1.0521240234375002 Q 3.041015625 1.0722656250000002 3.01611328125 1.0847167968750002 Q 2.9912109375 1.0971679687500002 2.965576171875 1.0971679687500002 Q 2.9326171875 1.0971679687500002 2.90771484375 1.0832519531250002 Q 2.8828125 1.0693359375000002 2.8656005859375 1.0458984375000002 Q 2.848388671875 1.0224609375000002 2.8399658203125 0.9906005859375002 Q 2.83154296875 0.9587402343750002 2.83154296875 0.9221191406250002 M 2.9091796875 0.4929199218750002 Q 2.9091796875 0.4826660156250002 2.9014892578125 0.4749755859375002 Q 2.893798828125 0.4672851562500002 2.883544921875 0.4672851562500002 Q 2.873291015625 0.4672851562500002 2.865966796875 0.4749755859375002 Q 2.858642578125 0.4826660156250002 2.858642578125 0.4929199218750002 Q 2.858642578125 0.5031738281250002 2.865966796875 0.5104980468750002 Q 2.873291015625 0.5178222656250002 2.883544921875 0.5178222656250002 Q 2.893798828125 0.5178222656250002 2.9014892578125 0.5104980468750002 Q 2.9091796875 0.5031738281250002 2.9091796875 0.4929199218750002 M 3.234375 0.7968750000000002 Q 3.22998046875 0.8085937500000002 3.2237548828125 0.8232421875000002 Q 3.217529296875 0.8378906250000002 3.20947265625 0.8540039062500002 Q 3.202880859375 0.8664550781250002 3.1959228515625 0.8734130859375002 Q 3.18896484375 0.8803710937500002 3.177978515625 0.8803710937500002 Q 3.16552734375 0.8803710937500002 3.158203125 0.8726806640625002 Q 3.15087890625 0.8649902343750002 3.15087890625 0.8547363281250002 Q 3.15087890625 0.8510742187500002 3.151611328125 0.8485107421875002 Q 3.15234375 0.8459472656250002 3.1552734375 0.8400878906250002 Q 3.17431640625 0.8034667968750002 3.1834716796875 0.7760009765625002 Q 3.192626953125 0.7485351562500002 3.198486328125 0.7185058593750002 Q 3.193359375 0.7016601562500002 3.191162109375 0.6899414062500002 Q 3.18896484375 0.6782226562500002 3.18896484375 0.6657714843750002 Q 3.18896484375 0.6416015625000002 3.19921875 0.6265869140625002 Q 3.20947265625 0.6115722656250002 3.227783203125 0.6115722656250002 Q 3.24462890625 0.6115722656250002 3.2545166015625 0.6262207031250002 Q 3.264404296875 0.6408691406250002 3.264404296875 0.6621093750000002 Q 3.264404296875 0.6738281250000002 3.26220703125 0.6855468750000002 Q 3.260009765625 0.6972656250000002 3.25634765625 0.7148437500000002 Q 3.273193359375 0.7565917968750002 3.2900390625 0.7888183593750002 Q 3.306884765625 0.8210449218750002 3.320068359375 0.8477783203125002 Q 3.333251953125 0.8745117187500002 3.3416748046875 0.8979492187500002 Q 3.35009765625 0.9213867187500002 3.35009765625 0.9448242187500002 Q 3.35009765625 0.9755859375000002 3.337646484375 1.0034179687500002 Q 3.3251953125 1.0312500000000002 3.296630859375 1.0502929687500002 Q 3.30029296875 1.0510253906250002 3.303955078125 1.0510253906250002 Q 3.3076171875 1.0510253906250002 3.311279296875 1.0510253906250002 Q 3.35302734375 1.0510253906250002 3.38818359375 1.0319824218750002 Q 3.42333984375 1.0129394531250002 3.4515380859375 0.9825439453125002 Q 3.479736328125 0.9521484375000002 3.501708984375 0.9151611328125002 Q 3.523681640625 0.8781738281250002 3.539794921875 0.8415527343750002 Q 3.547119140625 0.8247070312500002 3.560302734375 0.8247070312500002 Q 3.57275390625 0.8247070312500002 3.5797119140625 0.8334960937500002 Q 3.586669921875 0.8422851562500002 3.586669921875 0.8525390625000002 Q 3.586669921875 0.8583984375000002 3.58447265625 0.8635253906250002 Q 3.576416015625 0.8833007812500002 3.5635986328125 0.9085693359375002 Q 3.55078125 0.9338378906250002 3.5328369140625 0.9605712890625002 Q 3.514892578125 0.9873046875000002 3.491455078125 1.0129394531250002 Q 3.468017578125 1.0385742187500002 3.4390869140625 1.0587158203125002 Q 3.41015625 1.0788574218750002 3.375732421875 1.0909423828125002 Q 3.34130859375 1.1030273437500002 3.30029296875 1.1030273437500002 Q 3.251220703125 1.1030273437500002 3.2091064453125 1.0858154296875002 Q 3.1669921875 1.0686035156250002 3.140625 1.0290527343750002 Q 3.13623046875 1.0224609375000002 3.13623046875 1.0151367187500002 Q 3.13623046875 1.0041503906250002 3.1446533203125 0.9957275390625002 Q 3.153076171875 0.9873046875000002 3.1640625 0.9873046875000002 Q 3.17578125 0.9873046875000002 3.183837890625 0.9953613281250002 Q 3.1845703125 0.9968261718750002 3.18896484375 1.0001220703125002 Q 3.193359375 1.0034179687500002 3.1995849609375 1.0074462890625002 Q 3.205810546875 1.0114746093750002 3.2142333984375 1.0144042968750002 Q 3.22265625 1.0173339843750002 3.2314453125 1.0173339843750002 Q 3.2490234375 1.0173339843750002 3.2611083984375 1.0100097656250002 Q 3.273193359375 1.0026855468750002 3.280517578125 0.9920654296875002 Q 3.287841796875 0.9814453125000002 3.2911376953125 0.9693603515625002 Q 3.29443359375 0.9572753906250002 3.29443359375 0.9484863281250002 Q 3.29443359375 0.9301757812500002 3.28857421875 0.9118652343750002 Q 3.28271484375 0.8935546875000002 3.2735595703125 0.8752441406250002 Q 3.264404296875 0.8569335937500002 3.2537841796875 0.8375244140625002 Q 3.2431640625 0.8181152343750002 3.234375 0.7968750000000002 M 4.134521484375 0.3347167968750002 Q 4.134521484375 0.3464355468750002 4.12646484375 0.3533935546875002 Q 4.118408203125 0.3603515625000002 4.106689453125 0.3603515625000002 L 3.7353515625 0.3603515625000002 L 3.7353515625 0.3684082031250002 Q 3.7353515625 0.4130859375000002 3.728759765625 0.4636230468750002 Q 3.72216796875 0.5141601562500002 3.7108154296875 0.5643310546875002 Q 3.699462890625 0.6145019531250002 3.6851806640625 0.6621093750000002 Q 3.6708984375 0.7097167968750002 3.6558837890625 0.7500000000000002 Q 3.640869140625 0.7902832031250002 3.626220703125 0.8199462890625002 Q 3.611572265625 0.8496093750000002 3.599853515625 0.8642578125000002 Q 3.609375 0.8979492187500002 3.62255859375 0.9268798828125002 Q 3.6357421875 0.9558105468750002 3.6522216796875 0.9774169921875002 Q 3.668701171875 0.9990234375000002 3.687744140625 1.0114746093750002 Q 3.706787109375 1.0239257812500002 3.728759765625 1.0239257812500002 Q 3.75439453125 1.0239257812500002 3.7796630859375 1.0023193359375002 Q 3.804931640625 0.9807128906250002 3.8265380859375 0.9510498046875002 Q 3.84814453125 0.9213867187500002 3.8646240234375 0.8909912109375002 Q 3.881103515625 0.8605957031250002 3.888427734375 0.8422851562500002 Q 3.895751953125 0.8247070312500002 3.9140625 0.8247070312500002 Q 3.926513671875 0.8247070312500002 3.9342041015625 0.8334960937500002 Q 3.94189453125 0.8422851562500002 3.94189453125 0.8525390625000002 Q 3.94189453125 0.8576660156250002 3.939697265625 0.8627929687500002 Q 3.9375 0.8679199218750002 3.9290771484375 0.8862304687500002 Q 3.920654296875 0.9045410156250002 3.9071044921875 0.9287109375000002 Q 3.8935546875 0.9528808593750002 3.8756103515625 0.9796142578125002 Q 3.857666015625 1.0063476562500002 3.8353271484375 1.0283203125000002 Q 3.81298828125 1.0502929687500002 3.787353515625 1.0649414062500002 Q 3.76171875 1.0795898437500002 3.733154296875 1.0795898437500002 Q 3.6826171875 1.0795898437500002 3.642333984375 1.0466308593750002 Q 3.60205078125 1.0136718750000002 3.5738525390625 0.9543457031250002 Q 3.545654296875 0.8950195312500002 3.531005859375 0.8137207031250002 Q 3.516357421875 0.7324218750000002 3.516357421875 0.6357421875000002 Q 3.516357421875 0.6115722656250002 3.51708984375 0.5789794921875002 Q 3.517822265625 0.5463867187500002 3.52001953125 0.5101318359375002 Q 3.522216796875 0.4738769531250002 3.526611328125 0.4354248046875002 Q 3.531005859375 0.3969726562500002 3.538330078125 0.3603515625000002 L 3.275390625 0.3603515625000002 Q 3.263671875 0.3603515625000002 3.255615234375 0.3533935546875002 Q 3.24755859375 0.3464355468750002 3.24755859375 0.3347167968750002 Q 3.24755859375 0.3229980468750002 3.255615234375 0.3160400390625002 Q 3.263671875 0.3090820312500002 3.275390625 0.3090820312500002 L 3.55078125 0.3090820312500002 Q 3.55810546875 0.2827148437500002 3.5679931640625 0.2607421875000002 Q 3.577880859375 0.23876953125000022 3.5906982421875 0.22265625000000022 Q 3.603515625 0.20654296875000022 3.6192626953125 0.19738769531250022 Q 3.635009765625 0.18823242187500022 3.654052734375 0.18823242187500022 Q 3.67236328125 0.18823242187500022 3.6859130859375 0.19738769531250022 Q 3.699462890625 0.20654296875000022 3.708984375 0.22265625000000022 Q 3.718505859375 0.23876953125000022 3.7239990234375 0.2607421875000002 Q 3.7294921875 0.2827148437500002 3.732421875 0.3090820312500002 L 4.106689453125 0.3090820312500002 Q 4.118408203125 0.3090820312500002 4.12646484375 0.3160400390625002 Q 4.134521484375 0.3229980468750002 4.134521484375 0.3347167968750002 M 3.5830078125 0.7910156250000002 Q 3.60498046875 0.7426757812500002 3.6229248046875 0.6866455078125002 Q 3.640869140625 0.6306152343750002 3.6536865234375 0.5734863281250002 Q 3.66650390625 0.5163574218750002 3.6734619140625 0.4614257812500002 Q 3.680419921875 0.4064941406250002 3.680419921875 0.3603515625000002 L 3.593994140625 0.3603515625000002 Q 3.583740234375 0.4057617187500002 3.5775146484375 0.4727783203125002 Q 3.5712890625 0.5397949218750002 3.5712890625 0.6357421875000002 Q 3.5712890625 0.6892089843750002 3.57421875 0.7254638671875002 Q 3.5771484375 0.7617187500000002 3.5830078125 0.7910156250000002 M 3.651123046875 0.24316406250000022 Q 3.64453125 0.24316406250000022 3.632080078125 0.2574462890625002 Q 3.61962890625 0.2717285156250002 3.607177734375 0.3090820312500002 L 3.677490234375 0.3090820312500002 Q 3.673828125 0.2783203125000002 3.6668701171875 0.2607421875000002 Q 3.659912109375 0.24316406250000022 3.651123046875 0.24316406250000022 M 3.5947265625 0.8437500000000002 L 3.5947265625 0.8444824218750002 L 3.5947265625 0.8437500000000002 M 4.01806640625 0.4929199218750002 Q 4.01806640625 0.5207519531250002 3.9986572265625 0.5401611328125002 Q 3.979248046875 0.5595703125000002 3.951416015625 0.5595703125000002 Q 3.923583984375 0.5595703125000002 3.9041748046875 0.5401611328125002 Q 3.884765625 0.5207519531250002 3.884765625 0.4929199218750002 Q 3.884765625 0.4790039062500002 3.889892578125 0.4669189453125002 Q 3.89501953125 0.4548339843750002 3.9041748046875 0.4456787109375002 Q 3.913330078125 0.4365234375000002 3.9254150390625 0.4313964843750002 Q 3.9375 0.4262695312500002 3.951416015625 0.4262695312500002 Q 3.96533203125 0.4262695312500002 3.9774169921875 0.4313964843750002 Q 3.989501953125 0.4365234375000002 3.9986572265625 0.4456787109375002 Q 4.0078125 0.4548339843750002 4.012939453125 0.4669189453125002 Q 4.01806640625 0.4790039062500002 4.01806640625 0.4929199218750002 M 3.8994140625 0.9221191406250002 Q 3.8994140625 0.8166503906250002 3.91259765625 0.7119140625000002 Q 3.9140625 0.7016601562500002 3.9217529296875 0.6939697265625002 Q 3.929443359375 0.6862792968750002 3.94189453125 0.6862792968750002 Q 3.952880859375 0.6862792968750002 3.960205078125 0.6947021484375002 Q 3.967529296875 0.7031250000000002 3.967529296875 0.7141113281250002 Q 3.967529296875 0.7185058593750002 3.9656982421875 0.7404785156250002 Q 3.9638671875 0.7624511718750002 3.9613037109375 0.7928466796875002 Q 3.958740234375 0.8232421875000002 3.9569091796875 0.8572998046875002 Q 3.955078125 0.8913574218750002 3.955078125 0.9199218750000002 Q 3.955078125 0.9587402343750002 3.9627685546875 0.9825439453125002 Q 3.970458984375 1.0063476562500002 3.9825439453125 1.0195312500000002 Q 3.99462890625 1.0327148437500002 4.0081787109375 1.0371093750000002 Q 4.021728515625 1.0415039062500002 4.0341796875 1.0415039062500002 Q 4.0546875 1.0415039062500002 4.07666015625 1.0268554687500002 Q 4.0986328125 1.0122070312500002 4.1217041015625 0.9858398437500002 Q 4.144775390625 0.9594726562500002 4.168212890625 0.9224853515625002 Q 4.191650390625 0.8854980468750002 4.21435546875 0.8400878906250002 Q 4.218017578125 0.8327636718750002 4.224609375 0.8287353515625002 Q 4.231201171875 0.8247070312500002 4.2392578125 0.8247070312500002 Q 4.2509765625 0.8247070312500002 4.2586669921875 0.8334960937500002 Q 4.266357421875 0.8422851562500002 4.266357421875 0.8525390625000002 Q 4.266357421875 0.8598632812500002 4.263427734375 0.8649902343750002 Q 4.254638671875 0.8818359375000002 4.241455078125 0.9060058593750002 Q 4.228271484375 0.9301757812500002 4.21142578125 0.9558105468750002 Q 4.194580078125 0.9814453125000002 4.1744384765625 1.0067138671875002 Q 4.154296875 1.0319824218750002 4.131591796875 1.0521240234375002 Q 4.10888671875 1.0722656250000002 4.083984375 1.0847167968750002 Q 4.05908203125 1.0971679687500002 4.033447265625 1.0971679687500002 Q 4.00048828125 1.0971679687500002 3.9755859375 1.0832519531250002 Q 3.95068359375 1.0693359375000002 3.9334716796875 1.0458984375000002 Q 3.916259765625 1.0224609375000002 3.9078369140625 0.9906005859375002 Q 3.8994140625 0.9587402343750002 3.8994140625 0.9221191406250002 M 3.97705078125 0.4929199218750002 Q 3.97705078125 0.4826660156250002 3.9693603515625 0.4749755859375002 Q 3.961669921875 0.4672851562500002 3.951416015625 0.4672851562500002 Q 3.941162109375 0.4672851562500002 3.933837890625 0.4749755859375002 Q 3.926513671875 0.4826660156250002 3.926513671875 0.4929199218750002 Q 3.926513671875 0.5031738281250002 3.933837890625 0.5104980468750002 Q 3.941162109375 0.5178222656250002 3.951416015625 0.5178222656250002 Q 3.961669921875 0.5178222656250002 3.9693603515625 0.5104980468750002 Q 3.97705078125 0.5031738281250002 3.97705078125 0.4929199218750002 M 4.699951171875 0.8649902343750002 Q 4.695556640625 0.8730468750000002 4.6849365234375 0.8942871093750002 Q 4.67431640625 0.9155273437500002 4.6563720703125 0.9422607421875002 Q 4.638427734375 0.9689941406250002 4.613525390625 0.9975585937500002 Q 4.588623046875 1.0261230468750002 4.556396484375 1.0499267578125002 Q 4.524169921875 1.0737304687500002 4.4842529296875 1.0891113281250002 Q 4.4443359375 1.1044921875000002 4.3974609375 1.1044921875000002 Q 4.355712890625 1.1044921875000002 4.323486328125 1.0894775390625002 Q 4.291259765625 1.0744628906250002 4.2685546875 1.0469970703125002 Q 4.245849609375 1.0195312500000002 4.234130859375 0.9821777343750002 Q 4.222412109375 0.9448242187500002 4.222412109375 0.8994140625000002 Q 4.222412109375 0.8554687500000002 4.23486328125 0.8170166015625002 Q 4.247314453125 0.7785644531250002 4.2689208984375 0.7500000000000002 Q 4.29052734375 0.7214355468750002 4.319091796875 0.7049560546875002 Q 4.34765625 0.6884765625000002 4.3798828125 0.6884765625000002 Q 4.404052734375 0.6884765625000002 4.423828125 0.6968994140625002 Q 4.443603515625 0.7053222656250002 4.4571533203125 0.7192382812500002 Q 4.470703125 0.7331542968750002 4.4783935546875 0.7500000000000002 Q 4.486083984375 0.7668457031250002 4.486083984375 0.7836914062500002 Q 4.486083984375 0.7998046875000002 4.4820556640625 0.8137207031250002 Q 4.47802734375 0.8276367187500002 4.4718017578125 0.8382568359375002 Q 4.465576171875 0.8488769531250002 4.45751953125 0.8551025390625002 Q 4.449462890625 0.8613281250000002 4.44140625 0.8613281250000002 Q 4.428955078125 0.8613281250000002 4.4212646484375 0.8532714843750002 Q 4.41357421875 0.8452148437500002 4.41357421875 0.8334960937500002 Q 4.41357421875 0.8276367187500002 4.4161376953125 0.8232421875000002 Q 4.418701171875 0.8188476562500002 4.4219970703125 0.8140869140625002 Q 4.42529296875 0.8093261718750002 4.4278564453125 0.8023681640625002 Q 4.430419921875 0.7954101562500002 4.430419921875 0.7844238281250002 Q 4.430419921875 0.7690429687500002 4.4161376953125 0.7565917968750002 Q 4.40185546875 0.7441406250000002 4.3798828125 0.7441406250000002 Q 4.359375 0.7441406250000002 4.3406982421875 0.7565917968750002 Q 4.322021484375 0.7690429687500002 4.30810546875 0.7899169921875002 Q 4.294189453125 0.8107910156250002 4.2857666015625 0.8389892578125002 Q 4.27734375 0.8671875000000002 4.27734375 0.8986816406250002 Q 4.27734375 0.9287109375000002 4.28466796875 0.9558105468750002 Q 4.2919921875 0.9829101562500002 4.306640625 1.0037841796875002 Q 4.3212890625 1.0246582031250002 4.3436279296875 1.0371093750000002 Q 4.365966796875 1.0495605468750002 4.396728515625 1.0495605468750002 Q 4.436279296875 1.0495605468750002 4.469970703125 1.0352783203125002 Q 4.503662109375 1.0209960937500002 4.531494140625 0.9990234375000002 Q 4.559326171875 0.9770507812500002 4.58056640625 0.9510498046875002 Q 4.601806640625 0.9250488281250002 4.6168212890625 0.9019775390625002 Q 4.6318359375 0.8789062500000002 4.6402587890625 0.8616943359375002 Q 4.648681640625 0.8444824218750002 4.650146484375 0.8400878906250002 Q 4.653076171875 0.8327636718750002 4.6600341796875 0.8287353515625002 Q 4.6669921875 0.8247070312500002 4.675048828125 0.8247070312500002 Q 4.6875 0.8247070312500002 4.6951904296875 0.8334960937500002 Q 4.702880859375 0.8422851562500002 4.702880859375 0.8532714843750002 Q 4.702880859375 0.8576660156250002 4.699951171875 0.8649902343750002" fill="#ffffff" fill-rule="nonzero"></path></g><g><path d=" M 0.091875 2.45586279296875 L 0.256875 2.45586279296875 C 0.256875 2.45586279296875 0.2675 2.45336279296875 0.2675 2.4396127929687497 C 0.2675 2.4258627929687497 0.256875 2.42336279296875 0.256875 2.42336279296875 L 0.091875 2.42336279296875 L 0.091875 2.22398779296875 L 0.299375 2.22398779296875 C 0.299375 2.22398779296875 0.31 2.22148779296875 0.31 2.20773779296875 C 0.31 2.19461279296875 0.299375 2.19211279296875 0.299375 2.19211279296875 L 0.066875 2.19211279296875 C 0.060625 2.19211279296875 0.05625 2.1958627929687498 0.05625 2.2027377929687497 L 0.05625 2.57961279296875 C 0.05625 2.5846127929687497 0.060625 2.59023779296875 0.07375 2.59023779296875 C 0.088125 2.59023779296875 0.091875 2.5846127929687497 0.091875 2.57961279296875 M 0.43938781738281246 2.5577377929687497 L 0.43938781738281246 2.44961279296875 L 0.6137628173828125 2.44961279296875 C 0.6137628173828125 2.44961279296875 0.6243878173828125 2.44711279296875 0.6243878173828125 2.43336279296875 C 0.6243878173828125 2.41961279296875 0.6137628173828125 2.41648779296875 0.6137628173828125 2.41648779296875 L 0.43938781738281246 2.41648779296875 L 0.43938781738281246 2.22461279296875 L 0.6462628173828124 2.22461279296875 C 0.6462628173828124 2.22461279296875 0.6568878173828125 2.22148779296875 0.6568878173828125 2.20773779296875 C 0.6568878173828125 2.19461279296875 0.6462628173828124 2.19211279296875 0.6462628173828124 2.19211279296875 L 0.4143878173828125 2.19211279296875 C 0.40813781738281246 2.19211279296875 0.4037628173828125 2.1958627929687498 0.4037628173828125 2.2027377929687497 L 0.4037628173828125 2.57961279296875 C 0.4037628173828125 2.58586279296875 0.40813781738281246 2.59023779296875 0.4143878173828125 2.59023779296875 L 0.6612628173828126 2.59023779296875 C 0.6612628173828126 2.59023779296875 0.6718878173828124 2.58773779296875 0.6718878173828124 2.57398779296875 C 0.6718878173828124 2.56086279296875 0.6612628173828126 2.5577377929687497 0.6612628173828126 2.5577377929687497 M 0.801243896484375 2.5577377929687497 L 0.801243896484375 2.44961279296875 L 0.9756188964843749 2.44961279296875 C 0.9756188964843749 2.44961279296875 0.9862438964843749 2.44711279296875 0.9862438964843749 2.43336279296875 C 0.9862438964843749 2.41961279296875 0.9756188964843749 2.41648779296875 0.9756188964843749 2.41648779296875 L 0.801243896484375 2.41648779296875 L 0.801243896484375 2.22461279296875 L 1.008118896484375 2.22461279296875 C 1.008118896484375 2.22461279296875 1.018743896484375 2.22148779296875 1.018743896484375 2.20773779296875 C 1.018743896484375 2.19461279296875 1.008118896484375 2.19211279296875 1.008118896484375 2.19211279296875 L 0.776243896484375 2.19211279296875 C 0.769993896484375 2.19211279296875 0.765618896484375 2.1958627929687498 0.765618896484375 2.2027377929687497 L 0.765618896484375 2.57961279296875 C 0.765618896484375 2.58586279296875 0.769993896484375 2.59023779296875 0.776243896484375 2.59023779296875 L 1.023118896484375 2.59023779296875 C 1.023118896484375 2.59023779296875 1.033743896484375 2.58773779296875 1.033743896484375 2.57398779296875 C 1.033743896484375 2.56086279296875 1.023118896484375 2.5577377929687497 1.023118896484375 2.5577377929687497 M 1.1630999755859373 2.5577377929687497 L 1.1630999755859373 2.20211279296875 C 1.1630999755859373 2.1958627929687498 1.1593499755859373 2.19211279296875 1.1449749755859373 2.19211279296875 C 1.1318499755859373 2.19211279296875 1.1274749755859372 2.19648779296875 1.1274749755859372 2.20211279296875 L 1.1274749755859372 2.57961279296875 C 1.1274749755859372 2.58586279296875 1.1318499755859373 2.59023779296875 1.1380999755859373 2.59023779296875 L 1.3849749755859373 2.59023779296875 C 1.3849749755859373 2.59023779296875 1.3955999755859374 2.58773779296875 1.3955999755859374 2.57398779296875 C 1.3955999755859374 2.56086279296875 1.3849749755859373 2.5577377929687497 1.3849749755859373 2.5577377929687497 M 1.9130831909179689 2.4996127929687497 L 1.9499581909179686 2.57836279296875 C 1.9537081909179688 2.58586279296875 1.9593331909179688 2.59023779296875 1.968708190917969 2.59023779296875 C 1.9793331909179688 2.59023779296875 1.9837081909179688 2.58273779296875 1.9837081909179688 2.5777377929687497 C 1.9837081909179688 2.57273779296875 1.9818331909179687 2.56961279296875 1.9818331909179687 2.56961279296875 L 1.8062081909179688 2.19961279296875 C 1.8030831909179688 2.19273779296875 1.7999581909179687 2.18523779296875 1.7905831909179688 2.18523779296875 C 1.7812081909179687 2.18523779296875 1.7774581909179688 2.19273779296875 1.7743331909179687 2.19898779296875 L 1.6012081909179687 2.56961279296875 C 1.6012081909179687 2.56961279296875 1.5993331909179687 2.57273779296875 1.5993331909179687 2.5777377929687497 C 1.5993331909179687 2.5846127929687497 1.6055831909179688 2.59023779296875 1.6143331909179688 2.59023779296875 C 1.6268331909179687 2.59023779296875 1.6312081909179688 2.58586279296875 1.6362081909179687 2.57461279296875 L 1.6705831909179687 2.4996127929687497 M 1.7912081909179687 2.24023779296875 L 1.8974581909179689 2.46648779296875 L 1.6862081909179687 2.46648779296875 M 2.2799612426757814 2.22398779296875 C 2.2799612426757814 2.22398779296875 2.2905862426757815 2.22148779296875 2.2905862426757815 2.20773779296875 C 2.2905862426757815 2.19461279296875 2.2799612426757814 2.19211279296875 2.2799612426757814 2.19211279296875 L 2.0037112426757813 2.19211279296875 C 2.0037112426757813 2.19211279296875 1.9930862426757814 2.19461279296875 1.9930862426757814 2.20773779296875 C 1.9930862426757814 2.22148779296875 2.0037112426757813 2.22398779296875 2.0037112426757813 2.22398779296875 L 2.1243362426757812 2.22398779296875 L 2.1243362426757812 2.57961279296875 C 2.1243362426757812 2.58523779296875 2.1280862426757814 2.59023779296875 2.1418362426757813 2.59023779296875 C 2.1555862426757812 2.59023779296875 2.1599612426757813 2.58523779296875 2.1599612426757813 2.57961279296875 L 2.1599612426757813 2.22398779296875 M 2.5299942016601564 2.57961279296875 C 2.5299942016601564 2.5846127929687497 2.5343692016601564 2.59023779296875 2.5474942016601565 2.59023779296875 C 2.5618692016601563 2.59023779296875 2.5656192016601564 2.5846127929687497 2.5656192016601564 2.57961279296875 L 2.5656192016601564 2.44336279296875 L 2.8256192016601567 2.44336279296875 L 2.8256192016601567 2.57961279296875 C 2.8256192016601567 2.5846127929687497 2.8299942016601567 2.59023779296875 2.8431192016601567 2.59023779296875 C 2.8574942016601566 2.59023779296875 2.8612442016601567 2.5846127929687497 2.8612442016601567 2.57961279296875 L 2.8612442016601567 2.20211279296875 C 2.8612442016601567 2.19711279296875 2.8574942016601566 2.1914877929687497 2.8431192016601567 2.1914877929687497 C 2.8299942016601567 2.1914877929687497 2.8256192016601567 2.19711279296875 2.8256192016601567 2.20211279296875 L 2.8256192016601567 2.41086279296875 L 2.5656192016601564 2.41086279296875 L 2.5656192016601564 2.20211279296875 C 2.5656192016601564 2.19711279296875 2.5618692016601563 2.1914877929687497 2.5474942016601565 2.1914877929687497 C 2.5343692016601564 2.1914877929687497 2.5299942016601564 2.19711279296875 2.5299942016601564 2.20211279296875 M 3.168757934570313 2.56336279296875 C 3.081257934570313 2.56336279296875 3.006257934570313 2.49586279296875 3.006257934570313 2.39211279296875 C 3.006257934570313 2.28648779296875 3.0806329345703127 2.21773779296875 3.168757934570313 2.21773779296875 C 3.2568829345703127 2.21773779296875 3.331257934570313 2.28648779296875 3.331257934570313 2.39211279296875 C 3.331257934570313 2.49586279296875 3.255632934570313 2.56336279296875 3.168757934570313 2.56336279296875 M 3.168757934570313 2.59586279296875 C 3.276257934570313 2.59586279296875 3.3662579345703127 2.51336279296875 3.3662579345703127 2.39211279296875 C 3.3662579345703127 2.2696127929687497 3.271257934570313 2.18523779296875 3.168757934570313 2.18523779296875 C 3.066257934570313 2.18523779296875 2.970632934570313 2.2696127929687497 2.970632934570313 2.39211279296875 C 2.970632934570313 2.51336279296875 3.0606329345703127 2.59586279296875 3.168757934570313 2.59586279296875 M 3.690645446777344 2.58398779296875 C 3.6981454467773442 2.58398779296875 3.701270446777344 2.57898779296875 3.703770446777344 2.5752377929687498 L 3.880020446777344 2.27336279296875 L 3.880020446777344 2.57961279296875 C 3.880020446777344 2.58711279296875 3.883770446777344 2.59023779296875 3.8981454467773444 2.59023779296875 C 3.911270446777344 2.59023779296875 3.915645446777344 2.5864877929687498 3.915645446777344 2.57961279296875 L 3.915645446777344 2.20148779296875 C 3.915645446777344 2.19523779296875 3.908770446777344 2.19211279296875 3.9012704467773442 2.19211279296875 C 3.895020446777344 2.19211279296875 3.888770446777344 2.19461279296875 3.8856454467773442 2.19961279296875 L 3.6931454467773444 2.53461279296875 L 3.5100204467773444 2.2002377929687498 C 3.506895446777344 2.19461279296875 3.500645446777344 2.19211279296875 3.491270446777344 2.19211279296875 C 3.4831454467773444 2.19211279296875 3.475645446777344 2.1958627929687498 3.475645446777344 2.2027377929687497 L 3.475645446777344 2.57961279296875 C 3.475645446777344 2.58586279296875 3.478145446777344 2.59023779296875 3.491895446777344 2.59023779296875 C 3.5056454467773444 2.59023779296875 3.5081454467773443 2.58586279296875 3.5081454467773443 2.57961279296875 L 3.5081454467773443 2.26898779296875 L 3.676895446777344 2.5752377929687498 C 3.6793954467773444 2.57961279296875 3.683145446777344 2.58398779296875 3.690645446777344 2.58398779296875 M 4.070003051757813 2.5577377929687497 L 4.070003051757813 2.44961279296875 L 4.244378051757813 2.44961279296875 C 4.244378051757813 2.44961279296875 4.255003051757813 2.44711279296875 4.255003051757813 2.43336279296875 C 4.255003051757813 2.41961279296875 4.244378051757813 2.41648779296875 4.244378051757813 2.41648779296875 L 4.070003051757813 2.41648779296875 L 4.070003051757813 2.22461279296875 L 4.276878051757813 2.22461279296875 C 4.276878051757813 2.22461279296875 4.287503051757813 2.22148779296875 4.287503051757813 2.20773779296875 C 4.287503051757813 2.19461279296875 4.276878051757813 2.19211279296875 4.276878051757813 2.19211279296875 L 4.045003051757813 2.19211279296875 C 4.038753051757813 2.19211279296875 4.034378051757813 2.1958627929687498 4.034378051757813 2.2027377929687497 L 4.034378051757813 2.57961279296875 C 4.034378051757813 2.58586279296875 4.038753051757813 2.59023779296875 4.045003051757813 2.59023779296875 L 4.291878051757813 2.59023779296875 C 4.291878051757813 2.59023779296875 4.302503051757813 2.58773779296875 4.302503051757813 2.57398779296875 C 4.302503051757813 2.56086279296875 4.291878051757813 2.5577377929687497 4.291878051757813 2.5577377929687497" fill="#ffffff" fill-rule="nonzero"></path></g><g clip-path="url(#SvgjsClipPath1001)"><g clip-path="url(#a04c7472d-7b18-496d-a5dd-9343e9c5d15add8d2509-bd89-494e-9b09-db8c34e6a4f5)"><path d=" M -1.5666858859287025 2.119845834514398 C -1.5401698464661946 2.16057695337791 -1.494861801036298 2.185144353994257 -1.44626010978331 2.185144353994257 C -1.3976584185303214 2.185144353994257 -1.3523503731004238 2.16057695337791 -1.325834333637916 2.119845834514398 L -0.8610029911046153 2.119845834514398 C -0.7828638558556307 2.13364350432506 -0.6725539878874844 2.130068978467376 -0.5533792957922818 2.1058336931522748 C -0.500261841547089 2.0949671345449135 -0.450361460573812 2.081097974217097 -0.40546541580129425 2.0652270794089773 C -0.4633012441786297 2.064154721651672 -0.5044797820591569 2.050428542358163 -0.5093411372256078 2.0261932570430616 C -0.5152033596322099 1.9978115217330468 -0.4697353907224624 1.9631386209135064 -0.4000321364976136 1.9379024683582535 C -0.49311278983172 1.9500558562743808 -0.5677488897401739 1.9363296769808722 -0.5744689983526206 1.9030865865044058 C -0.5801167492077619 1.8755627374002346 -0.5374369104670089 1.8423911374409219 -0.4716656346856123 1.8174409469542834 C -0.5174833852231551 1.821025063594057 -0.5630373428471822 1.827423627872484 -0.6080695414148547 1.8366004055514726 C -0.7444019576269456 1.8644102167242587 -0.8597161617958493 1.9124518442515392 -0.9232712315454803 1.9627096778105841 L -1.325834333637916 1.9627096778105841 C -1.3523503731004238 1.9219785589470721 -1.3976584185303214 1.8974111583307245 -1.44626010978331 1.8974111583307245 C -1.494861801036298 1.8974111583307245 -1.5401698464661946 1.9219785589470721 -1.5666858859287025 1.9627096778105841 L -1.963958689751765 1.9627096778105841 C -1.9638157087174584 1.9583487562642092 -1.963386765614536 1.9540593252349876 -1.963386765614536 1.9496984036886122 C -1.963386765614536 1.9141676166632278 -1.9679621587123721 1.8792802442922265 -1.9766125112879687 1.8451792676099157 C -1.9402953285738933 1.8347416521054767 -1.9025483355167445 1.8217303779835048 -1.8641579278052118 1.8061454452440002 C -1.658122257368274 1.7225015401741812 -1.5143548273722 1.5976790972238362 -1.5429510342336767 1.5274039188617576 C -1.558035533353106 1.4902288499418384 -1.6185165108651294 1.4759307465110998 -1.7023748874864086 1.4829368171921615 C -1.660409953917192 1.4193102569253762 -1.6458973789349924 1.3650489544057245 -1.668917325458481 1.3351659182354816 C -1.715171690056919 1.2750423933092272 -1.8954707743185288 1.3362382759927869 -2.071623408585224 1.4719272775504932 C -2.1054448061218585 1.4979028625875705 -2.1377406068897526 1.525806625409203 -2.1683500782941687 1.5554996921031585 C -2.258857073010742 1.476788632716944 -2.3758155590741814 1.4096590371096283 -2.511504560631887 1.3581143742418165 C -2.361731927194904 1.3370246716814778 -2.256354904910363 1.2866953476052787 -2.256354904910363 1.2280016330220982 C -2.256354904910363 1.188967810656183 -2.3030382126117233 1.1536514951822592 -2.378246236657407 1.1281293805583914 C -2.3542254228937667 1.1266280796981638 -2.3296326849928968 1.1244118736663995 -2.304539513471951 1.121266290911637 C -2.0839197775356597 1.093527970256005 -1.9129144605040294 1.0100270462204934 -1.9223512087683172 0.9347475316576563 C -1.9269980923833065 0.8977154437720443 -1.9746107768076655 0.8696911610477974 -2.047888556890199 0.8539632472739853 C -1.8446410166222549 0.7972712671711082 -1.6970845892170354 0.6975419957417086 -1.7154576521255347 0.627052345828169 C -1.721748817635059 0.6028885510302213 -1.7469849701903124 0.5853733743275671 -1.7853753779018442 0.5745068157202058 C -1.673135265970549 0.5045890899438956 -1.607578461740614 0.4283801986580607 -1.627524316026494 0.3789087607877064 C -1.647684641863835 0.32922285136589086 -1.748486271050539 0.32007206517021836 -1.8784560312359506 0.3481678384116192 C -1.7414802003694776 0.19088870067349833 -1.6777821495855392 0.07107059392391157 -1.7159580857456103 0.018525063815948317 C -1.8041773839132649 -0.10300881534532674 -2.402624503006815 0.1810230093062888 -3.0526162849681766 0.6528604225206514 C -3.408853531945021 0.911441623065553 -3.7063970643386845 1.172739463262295 -3.8882689399776753 1.3761299845645467 C -3.8141332736892974 1.2413703597298384 -3.7287021056906364 1.10718265903236 -3.656854135951176 0.9945136039981424 C -3.4699779241114266 0.7011880121165468 -3.3642434492411173 0.52810947008746 -3.3642434492411173 0.3811249668194705 L -3.367174560444419 0.3811249668194705 C -3.366674126824343 0.3726175952781811 -3.365959221652806 0.36432469528835304 -3.365959221652806 0.35567434271275633 C -3.3655107924077794 0.14439819172738047 -3.5225817674106383 -0.03409049482552111 -3.7322004931214856 -0.06050645392853035 C -3.9418192188323333 -0.0869224130315396 -4.138262068786609 0.04701678629998751 -4.190244884434874 0.2517986212884697 C -4.444536653950547 0.30906252552854946 -4.873050813769773 0.4069330435119528 -5.249662858135419 0.4997992252945981 C -5.238939280562366 0.4894331003073128 -5.229574022815232 0.4789239942857202 -5.2235688193743215 0.4680574356783591 C -5.173668438401045 0.3779793840647081 -5.23593667884191 0.1349831162593114 -5.23593667884191 0.1349831162593114 L -5.4629190708048805 0.5449097416185777 L -5.463848447527878 0.5439088743784259 L -5.464777824250876 0.5449097416185777 L -5.691760216213845 0.1349831162593114 C -5.691760216213845 0.1349831162593114 -5.754028456654711 0.3779793840647083 -5.704128075681434 0.4680574356783591 C -5.681108129157946 0.509593426144654 -5.61805349302839 0.5481268148904935 -5.556643138793369 0.5775809079578142 C -5.894006889241639 0.6660861681940842 -6.107334592428254 0.7353604793160111 -5.949983964172979 0.7353604793160111 C -5.876420222021831 0.7353604793160111 -5.763965638539074 0.7364328370733166 -5.628062165429907 0.7382915905193125 C -5.818226941058726 0.9743532781608013 -6.105547329499411 1.370267762157944 -6.105547329499411 1.607473298073892 C -6.105547329499411 1.9618738045702397 -5.818248954024226 2.2491721800454245 -5.463848447527878 2.2491721800454254 C -5.109447941031529 2.2491721800454245 -4.822149565556344 1.9618738045702397 -4.822149565556344 1.607473298073892 C -4.822149565556344 1.3719835345696325 -5.105323504002116 0.9800725195330966 -5.295488279630935 0.7435103982715321 C -4.797628318172629 0.7518747887785139 -4.1830958327194985 0.7646001008318711 -3.887053601186062 0.7708912663413957 L -3.9218694830399103 0.8255815119639696 C -4.193461957706783 1.2518079752342772 -4.501300124570578 1.7348693996417697 -4.329722883401719 2.101329790571591 L -4.325361961855344 2.099328056091288 C -4.208903909411981 2.4161025375992944 -3.730632349653785 2.65345105454955 -3.1580647977698715 2.65345105454955 C -2.800683702518569 2.65345105454955 -2.4802632046357243 2.5608708348355194 -2.2613592411111214 2.414386765187606 L -1.6845022581979858 2.414386765187606 C -1.6580093198783885 2.455150572631089 -1.6126929790273374 2.4797449073542346 -1.5640764820525925 2.4797449073542346 C -1.5154599850778476 2.4797449073542346 -1.4701436442267974 2.45515057263109 -1.4436507059072001 2.414386765187606 L -1.0485941081159016 2.414386765187606 C -0.9777470056165933 2.4512758720389103 -0.8381975161325883 2.465288013401034 -0.6810613594287744 2.4454851401494615 C -0.6273004905291986 2.4386935410198607 -0.5765422233500779 2.4285418875840366 -0.530573820820254 2.4161025375992944 C -0.5881951776461296 2.4106692582956137 -0.6281583767350432 2.393868986764496 -0.6312324689726516 2.369347739380781 C -0.6348784853474898 2.340608551484997 -0.5869083483373627 2.3095101765231405 -0.5154893217008256 2.2896358127544145 C -0.609213389689315 2.294640148955173 -0.6826341508061553 2.27540919984083 -0.6868520913182232 2.2417371662614416 C -0.6904266171759081 2.2139273550886553 -0.6453875913690821 2.1840443189184127 -0.577900543175998 2.1640984646325325 C -0.6238650422079521 2.1642121002376538 -0.6697783725546715 2.1671727102028093 -0.7153768076625466 2.1729632887595907 C -0.8351234238949798 2.1879762973618657 -0.9400000125594445 2.219646596460951 -1.00963177626714 2.2573220990009455 L -1.4436507059072001 2.2573220990009455 C -1.470120467755267 2.2165255286512187 -1.5154451295668387 2.191904179546407 -1.5640764820525925 2.191904179546407 C -1.6127078345383472 2.191904179546407 -1.658032496349919 2.2165255286512187 -1.6845022581979858 2.2573220990009455 L -2.0834193439155833 2.2573220990009455 C -2.048645091174288 2.21587409026432 -2.0201276448118746 2.169557325606447 -1.9987745716056127 2.119845834514398 Z" fill="#af2cff" transform="matrix(1,0,0,1,0,0)" fill-rule="nonzero"></path></g></g></g><defs><clipPath id="SvgjsClipPath1001"><path d=" M -6.105547329499411 -0.0632132615808001 h 5.705547329499411 v 2.71666431613035 h -5.705547329499411 Z"></path></clipPath><clipPath id="a04c7472d-7b18-496d-a5dd-9343e9c5d15add8d2509-bd89-494e-9b09-db8c34e6a4f5"><path d=" M -6.105547329499411 2.65345105454955 L -0.4000321364976127 2.65345105454955 L -0.4000321364976127 -0.06318859729072096 L -6.105547329499411 -0.06318859729072096 Z"></path></clipPath></defs></svg>